<svg xmlns="http://www.w3.org/2000/svg" viewBox="0 0 140.23 64.44"><defs><style>.cls-1{fill:#faa819;}</style></defs><title>Asset 3</title><g id="Layer_2" data-name="Layer 2"><g id="Layer_1-2" data-name="Layer 1"><path class="cls-1" d="M0,29.69,5.71.51,15,21.6,24.68.51l5.13,29.18h-4.2L23,13.31,15,30.94,7.15,13.29,4.24,29.69Z"/><path class="cls-1" d="M34.21,5.45A2.45,2.45,0,0,1,35,3.66a2.56,2.56,0,0,1,3.64,0,2.4,2.4,0,0,1,.76,1.81,2.45,2.45,0,0,1-.76,1.82,2.4,2.4,0,0,1-1.81.76,2.58,2.58,0,0,1-2.58-2.6Zm4.55,7.12V29.69h-4V12.57Z"/><path class="cls-1" d="M47.85,16.26V29.69h-4V16.26H42.21V12.57h1.68V6.29h4v6.28h3.07v3.69Z"/><path class="cls-1" d="M66.94,13.31v5.25a9.75,9.75,0,0,0-2.43-2.27A4.74,4.74,0,0,0,62,15.66a4.87,4.87,0,0,0-3.71,1.57,5.5,5.5,0,0,0-1.47,3.92,5.6,5.6,0,0,0,1.42,4A4.82,4.82,0,0,0,62,26.65,5,5,0,0,0,64.46,26a10,10,0,0,0,2.48-2.32v5.22a10.31,10.31,0,0,1-4.82,1.25,9.2,9.2,0,0,1-6.64-2.56A8.6,8.6,0,0,1,52.8,21.2a8.7,8.7,0,0,1,2.71-6.47,9.17,9.17,0,0,1,6.65-2.64A9.94,9.94,0,0,1,66.94,13.31Z"/><path class="cls-1" d="M71.67,0h4V14a6.85,6.85,0,0,1,4.66-1.9A6,6,0,0,1,84.92,14q1.48,1.63,1.48,5.23V29.69h-4V19.56a4.89,4.89,0,0,0-.72-3,2.83,2.83,0,0,0-2.35-.92A3.22,3.22,0,0,0,76.45,17a8.76,8.76,0,0,0-.83,4.46v8.28h-4Z"/><path class="cls-1" d="M107,22.06H94.73a5.21,5.21,0,0,0,1.37,3.36,4.19,4.19,0,0,0,3.11,1.23,4.13,4.13,0,0,0,2.45-.7,10.11,10.11,0,0,0,2.16-2.61l3.34,1.87a13.31,13.31,0,0,1-1.64,2.26A8.51,8.51,0,0,1,103.68,29a7.4,7.4,0,0,1-2.13.89,10.24,10.24,0,0,1-2.48.28,8.07,8.07,0,0,1-6.15-2.46,9.2,9.2,0,0,1-2.32-6.57,9.5,9.5,0,0,1,2.25-6.58,8.57,8.57,0,0,1,12-.07A9.5,9.5,0,0,1,107,21.13Zm-4.06-3.23a3.79,3.79,0,0,0-4-3.17,4.24,4.24,0,0,0-1.35.22,4,4,0,0,0-1.15.63,3.88,3.88,0,0,0-.89,1A4.14,4.14,0,0,0,95,18.83Z"/><path class="cls-1" d="M115.28,0V29.69h-4V0Z"/><path class="cls-1" d="M124.25,0V29.69h-4V0Z"/><path class="cls-1" d="M36.43,52.92v11H32.34V36.8H37a20.72,20.72,0,0,1,5.15.48,6.83,6.83,0,0,1,3.09,1.79,7.73,7.73,0,0,1,2.34,5.77,7.41,7.41,0,0,1-2.5,5.9,9.82,9.82,0,0,1-6.73,2.18Zm0-3.8H38c3.76,0,5.64-1.44,5.64-4.34s-1.93-4.2-5.81-4.2H36.43Z"/><path class="cls-1" d="M62.71,46.82h4V63.94h-4V62.15a7.59,7.59,0,0,1-11.13-.28,9.58,9.58,0,0,1-2.3-6.54,9.27,9.27,0,0,1,2.3-6.42,7.43,7.43,0,0,1,5.77-2.56,7.28,7.28,0,0,1,5.36,2.46Zm-9.39,8.51a6,6,0,0,0,1.32,4,4.32,4.32,0,0,0,3.41,1.56,4.53,4.53,0,0,0,3.55-1.51,6.51,6.51,0,0,0,0-7.94,4.47,4.47,0,0,0-3.52-1.53,4.39,4.39,0,0,0-3.41,1.54A5.72,5.72,0,0,0,53.32,55.33Z"/><path class="cls-1" d="M75.63,34.25V63.94h-4V34.25Z"/><path class="cls-1" d="M80.64,46.82h4V48.4a8.29,8.29,0,0,1,2-1.61,4.69,4.69,0,0,1,2.17-.44,5.23,5.23,0,0,1,4.58,2.53,6,6,0,0,1,5-2.53q5.77,0,5.78,7V63.94h-4V54.43a7.31,7.31,0,0,0-.6-3.48,2.16,2.16,0,0,0-2-1,2.58,2.58,0,0,0-2.38,1.23,7.89,7.89,0,0,0-.75,4v8.84h-4V54.49q0-4.58-2.64-4.57a2.64,2.64,0,0,0-2.43,1.24,7.81,7.81,0,0,0-.77,3.94v8.84h-4Z"/><path class="cls-1" d="M124.71,56.31H112.44a5.16,5.16,0,0,0,1.37,3.36,4.17,4.17,0,0,0,3.11,1.23,4,4,0,0,0,2.44-.7,10,10,0,0,0,2.16-2.6l3.34,1.86a13.29,13.29,0,0,1-1.63,2.26,8.86,8.86,0,0,1-1.85,1.55,7.2,7.2,0,0,1-2.12.88,10.28,10.28,0,0,1-2.48.29A8,8,0,0,1,110.63,62a9.2,9.2,0,0,1-2.32-6.57,9.46,9.46,0,0,1,2.25-6.57,8.56,8.56,0,0,1,12-.07,9.42,9.42,0,0,1,2.18,6.62Zm-4.06-3.23a3.8,3.8,0,0,0-4-3.16,4,4,0,0,0-1.35.22,3.69,3.69,0,0,0-1.15.63,4,4,0,0,0-.89,1,4.91,4.91,0,0,0-.56,1.32Z"/><path class="cls-1" d="M129,46.82H133v1.53a7.64,7.64,0,0,1,1.94-1.56,4.33,4.33,0,0,1,2-.44,6.4,6.4,0,0,1,3.27,1L138.42,51a3.79,3.79,0,0,0-2.2-.81q-3.24,0-3.24,4.89v8.87H129Z"/></g></g></svg>